<svg width="32" height="32" viewBox="0 0 32 32" fill="none" xmlns="http://www.w3.org/2000/svg">
  <!-- Banana Body -->
  <path d="M26 6C26 6 22 4 16 4C8 4 4 10 4 18C4 24 8 28 14 28C18 28 22 26 24 24C26 22 28 18 28 14C28 10 26 6 26 6Z" fill="#FFE135"/>
  <!-- Curved Shape for realism -->
  <path d="M26 6C20 4 12 6 8 12C6 15 5 20 7 24C10 28 16 30 22 26C26 23 28 18 28 14C28 10 26 6 26 6Z" fill="#FFD700"/>
  <!-- Tip -->
  <path d="M6.5 24.5C6.5 24.5 5.5 25.5 5.5 26.5C5.5 27.5 6.5 28.5 7.5 28.5C8.5 28.5 9.5 27.5 9.5 26.5" fill="#5B3A29"/>
  <!-- Stem -->
  <path d="M26 6L28 4L30 6L28 8L26 6Z" fill="#4B3621"/>
</svg>
